<?xml version="1.0" encoding="UTF-8" standalone="no"?>
<svg
   xmlns:dc="http://purl.org/dc/elements/1.1/"
   xmlns:cc="http://creativecommons.org/ns#"
   xmlns:rdf="http://www.w3.org/1999/02/22-rdf-syntax-ns#"
   xmlns:svg="http://www.w3.org/2000/svg"
   xmlns="http://www.w3.org/2000/svg"
   xmlns:sodipodi="http://sodipodi.sourceforge.net/DTD/sodipodi-0.dtd"
   xmlns:inkscape="http://www.inkscape.org/namespaces/inkscape"
   inkscape:version="1.0 (4035a4f, 2020-05-01)"
   sodipodi:docname="faveicon16.svg"
   id="svg852"
   version="1.1"
   viewBox="0 0 32 32"
   height="16"
   width="16">
  <metadata
     id="metadata858">
    <rdf:RDF>
      <cc:Work
         rdf:about="">
        <dc:format>image/svg+xml</dc:format>
        <dc:type
           rdf:resource="http://purl.org/dc/dcmitype/StillImage" />
        <dc:title />
      </cc:Work>
    </rdf:RDF>
  </metadata>
  <defs
     id="defs856" />
  <sodipodi:namedview
     inkscape:current-layer="svg852"
     inkscape:window-maximized="0"
     inkscape:window-y="23"
     inkscape:window-x="0"
     inkscape:cy="7.2766201"
     inkscape:cx="8.4905958"
     inkscape:zoom="32.06"
     showgrid="false"
     id="namedview854"
     inkscape:window-height="887"
     inkscape:window-width="1389"
     inkscape:pageshadow="2"
     inkscape:pageopacity="0"
     guidetolerance="10"
     gridtolerance="10"
     objecttolerance="10"
     borderopacity="1"
     bordercolor="#666666"
     pagecolor="#ffffff"
     inkscape:document-rotation="0" />
  <g
     id="g870">
    <circle
       style="fill:#c5ddf9;fill-opacity:1;stroke:none;stroke-width:2;stroke-linecap:round;stroke-linejoin:round;stroke-miterlimit:4;stroke-dasharray:none;stroke-opacity:1;paint-order:markers fill stroke"
       id="path860"
       cx="16.019854"
       cy="7.7535868"
       r="7" />
    <g
       id="g895">
      <rect
         y="22.924459"
         x="8.892107"
         height="7.1900001"
         width="14.001579"
         id="rect862"
         style="fill:#c5ddf9;fill-opacity:1;stroke:none;stroke-width:2.00001;stroke-linecap:round;stroke-linejoin:round;stroke-miterlimit:4;stroke-dasharray:none;stroke-opacity:1;paint-order:markers fill stroke" />
      <rect
         transform="rotate(5.6127092)"
         style="fill:#c5ddf9;fill-opacity:1;stroke:none;stroke-width:2.00002;stroke-linecap:round;stroke-linejoin:round;stroke-miterlimit:4;stroke-dasharray:none;stroke-opacity:1;paint-order:markers fill stroke"
         id="rect862-4"
         width="13.502515"
         height="6.9337239"
         x="11.79478"
         y="22.166679" />
      <rect
         style="fill:#c5ddf9;fill-opacity:1;stroke:none;stroke-width:2.00002;stroke-linecap:round;stroke-linejoin:round;stroke-miterlimit:4;stroke-dasharray:none;stroke-opacity:1;paint-order:markers fill stroke"
         id="rect862-0"
         width="14.001579"
         height="7.1900001"
         x="9.0940313"
         y="18.800508" />
      <rect
         style="fill:#c5ddf9;fill-opacity:1;stroke:none;stroke-width:2.00002;stroke-linecap:round;stroke-linejoin:round;stroke-miterlimit:4;stroke-dasharray:none;stroke-opacity:1;paint-order:markers fill stroke"
         id="rect862-46"
         width="11.194344"
         height="7.1900001"
         x="10.653608"
         y="14.870377" />
    </g>
    <g
       stroke-linecap="round"
       transform="matrix(0.01505496,0,0,0.01514551,-32.883287,-7.3717381)"
       id="Layer_2"
       style="stroke-width:132.449;stroke-miterlimit:4;stroke-dasharray:none;stroke:#3b87e3;stroke-opacity:1">
      <path
         d="m 3248.44,555.13 c -6.38,-0.45 -21.29,-1.43 -29.82,-1.96 -10.21,-0.45 -23.35,0.01 -30.27,0.32 -7.32,0.49 -22.41,1.62 -29.68,2.67 -6.89,1.01 -19.46,4.16 -30.17,7.36 -13.34,4.47 -46,14.87 -54.59,18.23 -14.6,6 -42.37,19.35 -56.08,26.1 -7,3.68 -19.24,10.45 -25.74,14.98 -7.74,5.4 -32.71,26.15 -46.44,38.56 -5.76,5.36 -16.71,15.8 -21.91,20.88 -8.99,9 -30.18,34.87 -38.59,45.8 -10.93,14.64 -25.15,36.24 -35.86,54.05 -8.15,14.18 -25.21,44.39 -30.36,55.93 -4,9.09 -16.65,40.67 -21.22,54.96 -3.7,12.41 -11.49,45.51 -13.68,59.36 -1.59,11.41 -5.25,51.36 -5.79,62.59 -0.4,15.16 0.88,46.12 1.62,60.68 1.13,15.83 3.7,41.76 6.42,57.69 2.21,11.26 11.8,49.11 15.36,60.31 2.02,5.94 8.88,23.69 10.96,28.59 9.2,20.77 18.82,39.43 29.01,56.19 2.93,4.7 13.14,19.85 17.77,26.35 8.66,11.67 27.77,33.86 39.9,46.56 5.13,5.14 14.25,13.8 21.4,20.06 15.71,13.11 35.02,27.82 47.38,35.92 18.27,11.58 36.58,21.83 52.6,29.9 16.29,7.58 35.42,15.52 54.62,22.23 10.44,3.47 42.26,12.52 57.47,15.72 14.79,2.84 45.41,7.63 59.92,9.03 19.06,1.43 49.72,2.32 61.46,2.17 7.68,-0.27 23.03,-1.02 30.7,-1.5 15.47,-1.47 46.17,-5.49 61.56,-8.35 11.33,-2.29 45.34,-11.18 60.28,-15.72 14.76,-4.82 46.58,-17.72 57.69,-22.83 7.08,-3.34 20.88,-10.28 27.57,-13.94 15.15,-8.65 41.58,-26.17 51.33,-33.27 11.95,-9.13 30.76,-25.09 45.64,-39.24 9.87,-9.79 29.85,-32.14 39.25,-44.33 8.8,-11.86 25.54,-36.52 32.52,-48.65 8.71,-16.1 21.9,-43.64 25.34,-52.12 2.6,-6.66 7.39,-20.09 9.71,-26.8 5.06,-16.58 10.93,-39.26 14.13,-56.33 1.28,-7.52 3.39,-23.29 4.28,-31.4 0.89,-9.82 1.55,-22.69 1.71,-29.89 -0.05,-16.84 -1.04,-48.37 -1.64,-64.42 -0.87,-16.35 -3.19,-43.34 -5.49,-58.29 -3.17,-18.6 -8.46,-43.81 -12.97,-59.37 -4.71,-15 -15.86,-46.45 -20.29,-57.26 -2.96,-6.92 -8.98,-19.85 -12.1,-26.4 -3.45,-6.79 -11.33,-21.17 -15.19,-27.65 -8.54,-13.72 -28.04,-42.99 -36.01,-53.61 -9.78,-12.4 -30.24,-35.07 -40.76,-46.08 -8.16,-8.36 -29.4,-26.27 -44.53,-37.66 -6.31,-4.54 -17.01,-11.5 -25.53,-16.47 -6.37,-3.53 -19.76,-10.42 -26.68,-13.69 -7.07,-3.13 -21.52,-8.91 -28.99,-11.63 -19.52,-6.6 -36.01,-11.21 -53.12,-14.94"
         fill="none"
         stroke="#000000"
         stroke-width="300.00"
         stroke-opacity="1"
         stroke-linejoin="round"
         id="path842"
         style="stroke-width:132.449;stroke-miterlimit:4;stroke-dasharray:none;stroke:#3b87e3;stroke-opacity:1" />
    </g>
    <g
       stroke-linecap="round"
       transform="matrix(0.01505496,0,0,0.01514551,-32.794913,-7.3717381)"
       id="Layer_3"
       style="stroke-width:132.449;stroke-miterlimit:4;stroke-dasharray:none;stroke:#3b87e3;stroke-opacity:1">
      <path
         d="m 3527.71,1375.77 c 2.47,0.28 3.6,0.61 5.14,1.6 3.74,2.34 8.48,6.13 10.52,8.46 9.46,10.8 23.04,31.5 32.01,46.61 9.06,15.79 21.25,39.8 31.38,62.09 5.72,13.43 17.7,42.33 23.96,57.79 6.47,16.56 18.59,47.98 24.24,62.83 5.36,14.7 16.77,46.96 21.79,62.36 3.98,13.45 11.95,41.12 15.92,55.33 3.83,14.57 11.66,44.89 15.65,60.63 3.79,15.82 10.9,46.9 14.23,62.15 3.09,15.32 9.03,45.95 11.88,61.25 2.57,15.29 7.49,46.64 9.83,62.69 2.04,15.96 5.79,47.4 7.5,62.9 1.4,16.3 3.85,48.64 4.91,64.67 0.65,15.26 1.59,47.12 1.62,63.41 -0.32,15.72 -1.24,46.42 -2.27,62.69 -1.37,16.52 -4.67,47.65 -6.5,62.13 -2.79,18.73 -7.89,45.18 -12,61.22 -4.13,15.05 -12.92,45.76 -17.57,61.43 -5.89,18.46 -13.3,38.49 -20.93,57.06"
         fill="none"
         stroke="#000000"
         stroke-width="300.00"
         stroke-opacity="1"
         stroke-linejoin="round"
         id="path845"
         style="stroke-width:132.449;stroke-miterlimit:4;stroke-dasharray:none;stroke:#3b87e3;stroke-opacity:1" />
      <path
         d="m 2952.52,1384.49 c -6.14,12.36 -18.15,36.94 -24.02,49.16 -11.29,24.55 -33,73.02 -43.44,96.94 -5.02,11.9 -15.4,36.78 -20.76,49.77 -9.98,25.46 -28.14,75.64 -36.71,100.13 -7.61,23.35 -22.62,70.89 -30.01,95.07 -7.42,25.76 -21.7,77.24 -28.57,102.97 -6.45,26.21 -17.53,75.76 -22.21,99.2 -2.07,11.28 -5.95,33.4 -7.75,44.23 -2.08,14.2 -5.94,43.08 -7.71,57.78 -2.17,21.62 -5.82,79.6 -7,109.39 -0.24,13.1 -0.51,37.93 -0.33,53.11 0.33,11.54 1.51,32.08 3.11,47.1 3.08,26.71 9.16,76.76 12.15,100.11 0.8,6 1.84,39.65 2.27,54"
         fill="none"
         stroke="#000000"
         stroke-width="300.00"
         stroke-opacity="1"
         stroke-linejoin="round"
         id="path847"
         style="stroke-width:132.449;stroke-miterlimit:4;stroke-dasharray:none;stroke:#3b87e3;stroke-opacity:1" />
      <path
         d="m 3709.59,2480.96 c -4.8,3.65 -20.54,15.63 -24.29,18.23 -7.71,5.31 -21.92,12.57 -28.69,14.15 -1.18,0.26 -43.59,7.45 -59.25,10.21 -7.95,1.22 -47.82,5.38 -59.01,6.11 -16.03,0.84 -47.07,2.28 -62.06,2.88 -23.17,0.55 -85.02,0.83 -115.38,0.85 -34.18,-0.04 -106.13,-0.16 -143.9,-0.24 -29.44,-0.12 -108.17,-0.71 -127.3,-1.35 -24.12,-1.18 -96.74,-6.16 -120.27,-8.46 -13.52,-1.54 -36.55,-4.3 -46.05,-5.53"
         fill="none"
         stroke="#000000"
         stroke-width="300.00"
         stroke-opacity="1"
         stroke-linejoin="round"
         id="path849"
         style="stroke-width:132.449;stroke-miterlimit:4;stroke-dasharray:none;stroke:#3b87e3;stroke-opacity:1" />
    </g>
  </g>
</svg>
